# xmcd
#
# Track frame offsets:
#	150
#	21417
#	38665
#	70330
#	86727
#	108535
#	126995
#	151290
#	168720
#	187547
#	212725
#
# Disc length: 3185 seconds
#
# Revision: 0
# Processed by: cddbd v1.5.2PL0 Copyright (c) Steve Scherf et al.
# Submitted via: audiograbber 1.83.01
#
DISCID=940c6f0b
DTITLE=Solomon Burke - The Definition of Soul
DYEAR=1997
DGENRE=Soul
TTITLE0=Why Can't We Come Together
TTITLE1=Your Time to Cry
TTITLE2=Sweet Spirit
TTITLE3=You're the One
TTITLE4=Just For You
TTITLE5=Oooooo You
TTITLE6=Everybody's Got a Game (Performed by Solomon Burke and Little Richard)
TTITLE7=Today is Your Birthday
TTITLE8=Use Me, but Leave My Mind Alone
TTITLE9=It's So Hard
TTITLE10=Nobody but You
EXTD=Pointblank Records. CD 7243 8 42557 2 5
EXTT0=
EXTT1=
EXTT2=
EXTT3=
EXTT4=
EXTT5=
EXTT6=
EXTT7=
EXTT8=
EXTT9=
EXTT10=
PLAYORDER=
